<?xml version="1.0" standalone="no"?>
<!DOCTYPE svg PUBLIC "-//W3C//DTD SVG 20010904//EN"
 "http://www.w3.org/TR/2001/REC-SVG-20010904/DTD/svg10.dtd">
<svg version="1.0" xmlns="http://www.w3.org/2000/svg"
 width="474.000000pt" height="335.000000pt" viewBox="0 0 474.000000 335.000000"
 preserveAspectRatio="xMidYMid meet">

<g transform="translate(0.000000,335.000000) scale(0.100000,-0.100000)"
fill="#000000" stroke="none">
<path d="M2720 3192 c0 -6 18 -44 40 -85 54 -100 79 -178 87 -266 6 -70 5 -74
-13 -67 -36 14 -111 25 -183 27 -87 2 -96 14 -52 64 17 20 31 46 31 58 -1 41
-26 131 -38 135 -16 5 -15 -8 4 -81 15 -60 15 -60 -9 -84 l-24 -24 -18 48
c-20 54 -82 182 -97 200 -6 7 -14 10 -19 7 -5 -3 9 -37 30 -77 34 -62 91 -208
91 -234 0 -5 -31 -16 -68 -25 -116 -27 -198 -73 -287 -163 -63 -63 -89 -99
-125 -170 -31 -63 -59 -103 -93 -134 -55 -50 -122 -141 -161 -218 -65 -131
-74 -319 -19 -430 65 -131 190 -139 273 -18 17 24 30 48 30 54 0 18 10 13 58
-30 51 -44 178 -109 256 -129 l48 -13 -6 -46 c-13 -94 -1 -84 -461 -408 -176
-124 -234 -202 -260 -349 -25 -137 -14 -238 34 -319 l20 -35 -33 0 c-53 0
-134 29 -170 61 -78 68 -91 145 -55 315 30 143 23 360 -15 489 -70 232 -187
362 -401 444 -85 33 -97 35 -205 35 -104 -1 -124 -4 -205 -33 -118 -43 -197
-94 -193 -123 2 -15 13 -24 37 -31 l35 -9 -44 -19 c-65 -29 -108 -65 -130
-109 -11 -22 -20 -41 -20 -43 0 -3 35 -8 78 -12 208 -18 302 -69 302 -163 0
-16 -10 -55 -22 -88 -20 -53 -22 -77 -22 -249 0 -152 3 -203 18 -255 62 -227
197 -362 406 -406 85 -18 304 -15 400 6 76 16 204 55 281 85 l64 25 47 -20
c72 -31 463 -122 532 -123 56 -2 61 0 64 20 2 12 12 25 23 28 28 9 24 17 -21
45 -71 44 -34 32 80 -25 62 -31 114 -54 117 -52 2 3 -3 19 -12 37 -26 50 -11
59 19 12 l27 -43 20 25 c19 24 21 24 54 10 34 -14 35 -14 35 10 0 35 26 53 52
37 11 -7 21 -11 23 -9 2 2 9 129 16 283 l12 280 32 40 c37 47 65 97 65 120 0
21 12 19 33 -6 22 -25 34 -22 61 15 17 23 21 42 21 114 0 48 -3 106 -8 130
l-7 43 23 -16 c26 -17 37 -12 37 19 0 31 -36 85 -115 172 -38 42 -78 89 -87
103 l-17 25 57 22 c98 37 243 126 316 194 83 78 116 140 116 221 0 95 -59 154
-180 181 -61 13 -70 21 -70 59 0 43 -45 160 -91 238 -54 92 -166 207 -239 245
l-55 29 -2 77 c-2 76 -2 77 32 110 21 20 35 44 35 57 0 34 -31 153 -40 153
-16 0 -16 -14 1 -77 21 -75 19 -90 -16 -123 -23 -22 -25 -22 -31 -4 -28 76
-50 126 -75 170 -30 53 -59 85 -59 66z m-190 -569 c-22 -49 -20 -64 5 -43 21
17 45 104 45 162 l0 48 58 0 c60 0 190 -24 204 -38 4 -4 -4 -31 -17 -60 -18
-40 -21 -52 -10 -52 8 0 24 23 37 50 13 28 27 50 32 50 15 0 79 -42 134 -88
115 -96 232 -316 232 -435 0 -22 6 -27 38 -32 111 -20 166 -49 195 -105 35
-68 5 -176 -70 -254 -115 -119 -310 -221 -498 -261 l-70 -14 60 4 c33 2 69 7
80 10 15 4 27 -4 45 -29 14 -18 60 -73 103 -121 66 -75 104 -139 90 -154 -2
-3 -19 11 -39 30 -28 26 -35 30 -31 14 37 -139 42 -250 13 -303 -21 -40 -33
-38 -66 12 l-25 39 -6 -50 c-4 -27 -13 -62 -22 -78 -21 -42 -121 -138 -198
-191 l-64 -45 -8 48 c-4 26 -6 76 -5 110 2 34 -1 65 -5 69 -11 11 -9 -153 4
-264 6 -53 20 -140 31 -192 11 -52 21 -101 21 -109 1 -9 -18 -19 -52 -29 -66
-19 -65 -20 -116 121 -44 124 -79 257 -102 395 -10 56 -21 102 -25 102 -10 0
3 -74 58 -332 6 -23 1 -28 -39 -46 -90 -40 -83 -45 -83 70 1 142 -28 218 -103
269 -49 34 -156 34 -221 0 -44 -23 -140 -107 -140 -124 0 -4 21 13 47 38 148
147 339 129 388 -37 23 -79 19 -210 -10 -336 l-26 -107 32 -26 31 -25 -23 -53
-22 -53 -40 6 c-110 18 -408 99 -464 126 -77 38 -138 105 -158 173 -8 28 -15
89 -15 137 0 154 42 261 139 353 31 29 167 130 303 226 269 189 278 198 293
303 6 46 5 48 -22 54 -118 26 -237 85 -302 149 l-34 34 36 108 c51 150 98 315
92 321 -6 6 -2 16 -65 -193 -89 -293 -149 -390 -244 -390 -159 0 -216 298
-101 526 35 70 126 178 199 239 42 35 74 65 71 68 -3 3 -15 -3 -26 -14 -22
-19 -22 -19 -14 5 31 100 170 258 270 308 63 32 143 60 185 65 24 3 25 0 28
-54 2 -42 -3 -71 -18 -105z m-1473 -929 c74 -18 186 -74 245 -122 91 -74 169
-206 209 -357 30 -112 33 -353 5 -470 -35 -147 -21 -231 52 -307 32 -34 107
-63 187 -73 41 -4 70 -14 90 -30 16 -13 27 -26 25 -28 -17 -15 -213 -79 -300
-98 -137 -29 -352 -32 -450 -5 -194 53 -316 189 -367 411 -27 121 -25 376 5
465 26 77 28 130 7 170 -27 53 -136 94 -277 106 -43 4 -78 10 -78 14 0 4 10
22 23 41 30 44 115 95 186 110 l56 13 -70 9 c-38 5 -74 13 -79 17 -15 15 13
39 83 74 166 83 292 100 448 60z m1909 -996 c-3 -57 -8 -156 -12 -220 l-6
-118 -43 0 c-43 0 -43 0 -49 43 -3 23 -8 100 -12 172 l-6 130 58 47 c33 25 63
47 67 47 5 1 6 -45 3 -101z m-140 -25 c0 -10 3 -83 7 -163 6 -141 6 -144 -9
-91 -8 29 -21 97 -29 150 -12 87 -12 97 3 109 21 16 28 15 28 -5z m-216 -138
c10 -32 9 -41 -19 -96 l-30 -60 34 -15 c19 -8 39 -14 44 -14 19 0 22 -21 11
-58 -7 -20 -16 -40 -19 -45 -6 -6 -194 74 -210 89 -2 2 4 41 15 88 l18 84 71
30 c38 17 71 31 72 31 1 1 7 -15 13 -34z m42 -123 c10 -26 18 -50 18 -54 0 -4
-20 0 -45 9 -25 8 -45 17 -45 19 0 15 42 85 48 80 3 -4 14 -28 24 -54z"/>
<path d="M3044 2353 c-7 -28 20 -148 38 -170 6 -7 23 -13 39 -13 37 0 46 31
29 102 -20 84 -36 108 -70 108 -24 0 -31 -5 -36 -27z"/>
<path d="M2722 2258 c-16 -16 -15 -49 4 -116 21 -75 44 -100 79 -84 18 9 25
19 25 41 0 45 -38 158 -56 165 -24 9 -39 7 -52 -6z"/>
<path d="M3166 2047 c-33 -12 -61 -27 -63 -34 -3 -7 18 -23 45 -37 40 -20 52
-23 65 -13 18 15 41 83 32 97 -8 13 -9 13 -79 -13z"/>
<path d="M2025 1011 c-40 -24 -78 -67 -73 -81 4 -13 71 35 94 68 21 31 14 35
-21 13z"/>
<path d="M1988 893 c-62 -68 -77 -124 -17 -67 27 26 59 73 59 89 0 13 -18 3
-42 -22z"/>
<path d="M1861 834 c-41 -34 -67 -82 -52 -97 15 -15 57 17 85 65 29 52 11 70
-33 32z"/>
<path d="M1406 1377 c3 -10 9 -15 12 -12 3 3 0 11 -7 18 -10 9 -11 8 -5 -6z"/>
<path d="M1421 1314 c0 -11 3 -14 6 -6 3 7 2 16 -1 19 -3 4 -6 -2 -5 -13z"/>
<path d="M1220 1153 c0 -5 13 -17 28 -27 l27 -19 -24 26 c-26 28 -31 32 -31
20z"/>
<path d="M1294 1096 c11 -9 24 -16 30 -16 12 0 7 5 -24 19 -24 11 -24 11 -6
-3z"/>
<path d="M1233 1025 c0 -22 2 -30 4 -17 2 12 2 30 0 40 -3 9 -5 -1 -4 -23z"/>
<path d="M910 945 c0 -8 4 -15 10 -15 5 0 7 7 4 15 -4 8 -8 15 -10 15 -2 0 -4
-7 -4 -15z"/>
<path d="M750 914 c0 -6 7 -19 16 -30 14 -18 14 -18 3 6 -14 31 -19 36 -19 24z"/>
<path d="M965 862 c11 -13 29 -28 40 -34 21 -11 18 -8 -30 32 -29 24 -29 24
-10 2z"/>
<path d="M1174 838 l-19 -23 23 19 c21 18 27 26 19 26 -2 0 -12 -10 -23 -22z"/>
<path d="M810 815 c13 -14 26 -25 28 -25 3 0 -5 11 -18 25 -13 14 -26 25 -28
25 -3 0 5 -11 18 -25z"/>
<path d="M890 832 c0 -6 -7 -18 -16 -26 -8 -9 -11 -16 -5 -16 13 0 35 39 27
48 -3 3 -6 0 -6 -6z"/>
<path d="M1068 803 c7 -3 16 -2 19 1 4 3 -2 6 -13 5 -11 0 -14 -3 -6 -6z"/>
</g>
</svg>
